<svg width="32" height="32" viewBox="0 0 32 32" fill="none" xmlns="http://www.w3.org/2000/svg">
  <defs>
    <linearGradient id="leafGradient" x1="0%" y1="0%" x2="100%" y2="100%">
      <stop offset="0%" style="stop-color:#22c55e;stop-opacity:1" />
      <stop offset="100%" style="stop-color:#15803d;stop-opacity:1" />
    </linearGradient>
    <linearGradient id="circuitGradient" x1="0%" y1="0%" x2="100%" y2="100%">
      <stop offset="0%" style="stop-color:#06b6d4;stop-opacity:1" />
      <stop offset="100%" style="stop-color:#0891b2;stop-opacity:1" />
    </linearGradient>
  </defs>
  
  <!-- Background circle -->
  <circle cx="16" cy="16" r="15" fill="url(#leafGradient)" stroke="#ffffff" stroke-width="2"/>
  
  <!-- Leaf shape -->
  <path d="M16 6C12 6 8 10 8 16C8 20 10 24 14 26C15 26.5 17 26.5 18 26C22 24 24 20 24 16C24 10 20 6 16 6Z" fill="#ffffff" opacity="0.9"/>
  
  <!-- Leaf vein -->
  <path d="M16 8L16 24" stroke="url(#leafGradient)" stroke-width="1.5" stroke-linecap="round"/>
  <path d="M16 12L12 16" stroke="url(#leafGradient)" stroke-width="1" stroke-linecap="round"/>
  <path d="M16 16L20 20" stroke="url(#leafGradient)" stroke-width="1" stroke-linecap="round"/>
  
  <!-- AI circuit elements -->
  <circle cx="13" cy="11" r="1.5" fill="url(#circuitGradient)"/>
  <circle cx="19" cy="13" r="1.5" fill="url(#circuitGradient)"/>
  <circle cx="15" cy="19" r="1.5" fill="url(#circuitGradient)"/>
  
  <!-- Connecting lines for AI circuit -->
  <path d="M13 11L15 13L19 13" stroke="url(#circuitGradient)" stroke-width="1" fill="none" opacity="0.7"/>
  <path d="M17 15L15 19" stroke="url(#circuitGradient)" stroke-width="1" fill="none" opacity="0.7"/>
</svg>
