<svg width="16" height="16" viewBox="0 0 16 16" fill="none" xmlns="http://www.w3.org/2000/svg">
  <defs>
    <linearGradient id="leafGradient16" x1="0%" y1="0%" x2="100%" y2="100%">
      <stop offset="0%" style="stop-color:#22c55e;stop-opacity:1" />
      <stop offset="100%" style="stop-color:#15803d;stop-opacity:1" />
    </linearGradient>
  </defs>
  
  <!-- Background circle -->
  <circle cx="8" cy="8" r="7.5" fill="url(#leafGradient16)" stroke="#ffffff" stroke-width="1"/>
  
  <!-- Simplified leaf shape -->
  <path d="M8 3C6 3 4 5 4 8C4 10 5 12 7 13C7.5 13.2 8.5 13.2 9 13C11 12 12 10 12 8C12 5 10 3 8 3Z" fill="#ffffff" opacity="0.9"/>
  
  <!-- Leaf vein -->
  <path d="M8 4L8 12" stroke="url(#leafGradient16)" stroke-width="0.8" stroke-linecap="round"/>
  <path d="M8 6L6 8" stroke="url(#leafGradient16)" stroke-width="0.5" stroke-linecap="round"/>
  <path d="M8 8L10 10" stroke="url(#leafGradient16)" stroke-width="0.5" stroke-linecap="round"/>
  
  <!-- AI elements -->
  <circle cx="6.5" cy="5.5" r="0.7" fill="#06b6d4"/>
  <circle cx="9.5" cy="6.5" r="0.7" fill="#06b6d4"/>
  <circle cx="7.5" cy="9.5" r="0.7" fill="#06b6d4"/>
</svg>
